- 
http://www.Speed.Cd      fast  and The Hottest Private Tracker on the net

   signup is open now

Please Seed back to make the speed Faster!!!

------------------nfo--------------------------
-[IMG]http://img685.imageshack.us/img685/3600/30minutesorlessbr389x50.jpg[/IMG]


[color=blue][size=4][b]30.Minutes.or.Less.2011.BDRip.XVID.AC3.HQ.Hive-CM8[/b][/size][/color]


[b]Thx Hive

CM8 Doing It Right The First Time :D


Source: Bluray

Video: 720x304 @bitrate 1700 2pass
Audio: English AC3 5.1 @384
Sample: yes included
Subs: yes english in srt /subs[/b]


[url]http://www.imdb.com/title/tt1622547/[/url]


General
Complete name                  : 30.Minutes.or.Less.2011.BDRip.XVID.AC3.HQ.Hive-CM8.avi
Format                         : AVI
Format/Info                    : Audio Video Interleave
File size                      : 1.25 GiB
Duration                       : 1h 23mn
Overall bit rate               : 2 157 Kbps
Writing application            : Nandub v1.0rc2
Writing library                : Nandub build 1853/release

Video
ID                             : 0
Format                         : MPEG-4 Visual
Format profile                 : Advanced Simple@L5
Format settings, BVOP          : 1
Format settings, QPel          : Yes
Format settings, GMC           : No warppoints
Format settings, Matrix        : Default (H.263)
Muxing mode                    : Packed bitstream
Codec ID                       : XVID
Codec ID/Hint                  : XviD
Duration                       : 1h 23mn
Bit rate                       : 1 699 Kbps
Width                          : 720 pixels
Height                         : 304 pixels
Display aspect ratio           : 2.40:1
Frame rate                     : 23.976 fps
Color space                    : YUV
Chroma subsampling             : 4:2:0
Bit depth                      : 8 bits
Scan type                      : Progressive
Compression mode               : Lossy
Bits/(Pixel*Frame)             : 0.324
Stream size                    : 1 010 MiB (79%)
Writing library                : XviD 1.2.1 (UTC 2008-12-04)

Audio
ID                             : 1
Format                         : AC-3
Format/Info                    : Audio Coding 3
Mode extension                 : CM (complete main)
Codec ID                       : 2000
Duration                       : 1h 23mn
Bit rate mode                  : Constant
Bit rate                       : 448 Kbps
Channel(s)                     : 6 channels
Channel positions              : Front: L C R, Side: L R, LFE
Sampling rate                  : 48.0 KHz
Bit depth                      : 16 bits
Compression mode               : Lossy
Stream size                    : 266 MiB (21%)
Alignment                      : Split accross interleaves
Interleave, duration           : 42 ms (1.00 video frame)
Interleave, preload duration   : 500 ms


Plot:

Two fledgling criminals kidnap a pizza delivery guy, strap a bomb to his chest, and inform him that he has mere hours 
to rob a bank or else... 

Cast:

Jesse Eisenberg	... 	Nick
Danny McBride	... 	Dwayne
Aziz Ansari	... 	Chet
Nick Swardson	... 	Travis
Dilshad Vadsaria ... 	Kate


[img]http://img197.imageshack.us/img197/3087/3m3m3m3m3m.png[/img]
[img]http://img256.imageshack.us/img256/1831/3m3m3m3m.png[/img]
[img]http://img214.imageshack.us/img214/7746/3m3m3m.png[/img]
[img]http://img249.imageshack.us/img249/5796/3m3m.png[/img]
[img]http://img12.imageshack.us/img12/394/85015044.png[/img]
[img]http://img259.imageshack.us/img259/7923/3m3m3m3m3m3m.png[/img]



Greetz

ViSiON,SPK,SiC,SANTi,3LT0N,YanKeeS,MAGNET,THC,T0XiC,LKRG,FANTASIA-PLAY,FANTASIA-M,FLAWL3SS,
WBZ,BHRG,NOVA,D2U,Vik,Rapeseed,SAFC,goldadvance,MEMORY100,KaN1vE,Unevano,Pinnz,Wayne
Mr Hive,and all P2P groups
Great Work Guys :D

LOOKING FOR ANYTHING YOU WANT TO LOOK AND SOUND BETTER

CM8@hushmail.com